HIERARCHY
ROOT hips
{
  OFFSET 0 10.6860622 2.3727825e-15
  CHANNELS 6 Xposition Yposition Zposition Yrotation Xrotation Zrotation
  JOINT leftUpperLeg
  {
    OFFSET 0.6642549969 -0.9402397400000004 0
    CHANNELS 3 Yrotation Xrotation Zrotation
    JOINT leftLowerLeg
    {
      OFFSET 0 -3.997221335632195 0
      CHANNELS 3 Yrotation Xrotation Zrotation
      JOINT leftFoot
      {
        OFFSET -0.13777839790000004 -4.6145792000000005 -0.22186036399999998
        CHANNELS 3 Yrotation Xrotation Zrotation
        JOINT leftToes
        {
          OFFSET -0.03777410834999995 -0.9130806927000008 0.85230013
          CHANNELS 3 Yrotation Xrotation Zrotation
          End Site
          {
            OFFSET -0.03777410834999995 -0.9130806927000008 0.85230013
          }
        }
      }
    }
  }
  JOINT rightUpperLeg
  {
    OFFSET -0.6642778626 -0.9402397400000004 0
    CHANNELS 3 Yrotation Xrotation Zrotation
    JOINT rightLowerLeg
    {
      OFFSET 0 -3.997221452859387 0
      CHANNELS 3 Yrotation Xrotation Zrotation
      JOINT rightFoot
      {
        OFFSET 0.1377926176 -4.6145792000000005 -0.22185782299999995
        CHANNELS 3 Yrotation Xrotation Zrotation
        JOINT rightToes
        {
          OFFSET 0.037780746850000047 -0.9130806927000008 0.85230167
          CHANNELS 3 Yrotation Xrotation Zrotation
          End Site
          {
            OFFSET 0.037780746850000047 -0.9130806927000008 0.85230167
          }
        }
      }
    }
  }
  JOINT spine
  {
    OFFSET 0 0.13988381660000015 0
    CHANNELS 3 Yrotation Xrotation Zrotation
    JOINT chest
    {
      OFFSET 0 0.6191039003973773 0
      CHANNELS 3 Yrotation Xrotation Zrotation
      JOINT upperChest
      {
        OFFSET 0 0.9855186130586943 0
        CHANNELS 3 Yrotation Xrotation Zrotation
        JOINT leftShoulder
        {
          OFFSET 0.1807663869 1.5087829790000005 0
          CHANNELS 3 Yrotation Xrotation Zrotation
          JOINT leftUpperArm
          {
            OFFSET 0.5985063006419806 0 0
            CHANNELS 3 Yrotation Xrotation Zrotation
            JOINT leftLowerArm
            {
              OFFSET 2.2993332369501065 0 0
              CHANNELS 3 Yrotation Xrotation Zrotation
              JOINT leftHand
              {
                OFFSET 2.395047042602395 0 0
                CHANNELS 3 Yrotation Xrotation Zrotation
                JOINT leftIndexProximal
                {
                  OFFSET 0.5766295810000004 0.04556643899499946 0.17265095988184
                  CHANNELS 3 Yrotation Xrotation Zrotation
                  JOINT leftIndexIntermediate
                  {
                    OFFSET 0.2957229000000008 -0.019352197700001517 -0.007932640616999987
                    CHANNELS 3 Yrotation Xrotation Zrotation
                    JOINT leftIndexDistal
                    {
                      OFFSET 0.19008243099999922 -0.012484908149998475 -0.002786250786000012
                      CHANNELS 3 Yrotation Xrotation Zrotation
                      End Site
                      {
                        OFFSET 0.19008243099999922 -0.012484908149998475 -0.002786250786000012
                      }
                    }
                  }
                }
                JOINT leftMiddleProximal
                {
                  OFFSET 0.5834975091000001 0.0524350405149987 0.02204081888183999
                  CHANNELS 3 Yrotation Xrotation Zrotation
                  JOINT leftMiddleIntermediate
                  {
                    OFFSET 0.33880573540000003 -0.019871473270000717 -0.00000971183179999946
                    CHANNELS 3 Yrotation Xrotation Zrotation
                    JOINT leftMiddleDistal
                    {
                      OFFSET 0.20676022730000088 -0.012221336379999448 0.0001471936708000235
                      CHANNELS 3 Yrotation Xrotation Zrotation
                      End Site
                      {
                        OFFSET 0.20676022730000088 -0.012221336379999448 0.0001471936708000235
                      }
                    }
                  }
                }
                JOINT leftLittleProximal
                {
                  OFFSET 0.5344154683999995 -0.012880921405001189 -0.24414037221816004
                  CHANNELS 3 Yrotation Xrotation Zrotation
                  JOINT leftLittleIntermediate
                  {
                    OFFSET 0.21758961730000093 -0.011650919939999227 0.011893592810000034
                    CHANNELS 3 Yrotation Xrotation Zrotation
                    JOINT leftLittleDistal
                    {
                      OFFSET 0.1475273964999999 -0.008152365682999818 0.006001092492999946
                      CHANNELS 3 Yrotation Xrotation Zrotation
                      End Site
                      {
                        OFFSET 0.1475273964999999 -0.008152365682999818 0.006001092492999946
                      }
                    }
                  }
                }
                JOINT leftRingProximal
                {
                  OFFSET 0.5799399463000003 0.026911854694997794 -0.12150566991816003
                  CHANNELS 3 Yrotation Xrotation Zrotation
                  JOINT leftRingIntermediate
                  {
                    OFFSET 0.26167887460000006 -0.013480186499999602 0.010996293000000053
                    CHANNELS 3 Yrotation Xrotation Zrotation
                    JOINT leftRingDistal
                    {
                      OFFSET 0.17667108799999987 -0.008990287899999228 0.0055541023999999065
                      CHANNELS 3 Yrotation Xrotation Zrotation
                      End Site
                      {
                        OFFSET 0.17667108799999987 -0.008990287899999228 0.0055541023999999065
                      }
                    }
                  }
                }
                JOINT leftThumbProximal
                {
                  OFFSET 0.11018806699999972 -0.09448718900500053 0.17047963138184
                  CHANNELS 3 Yrotation Xrotation Zrotation
                  JOINT leftThumbIntermediate
                  {
                    OFFSET 0.31062601459999983 -0.08126270900000132 0.15443142000000007
                    CHANNELS 3 Yrotation Xrotation Zrotation
                    JOINT leftThumbDistal
                    {
                      OFFSET 0.21627175790000086 -0.08833193599999878 0.018771167799999988
                      CHANNELS 3 Yrotation Xrotation Zrotation
                      End Site
                      {
                        OFFSET 0.21627175790000086 -0.08833193599999878 0.018771167799999988
                      }
                    }
                  }
                }
              }
            }
          }
        }
        JOINT neck
        {
          OFFSET 0 1.5463305265074576 0
          CHANNELS 3 Yrotation Xrotation Zrotation
          JOINT head
          {
            OFFSET 0 0.8456443600000344 0
            CHANNELS 3 Yrotation Xrotation Zrotation
            JOINT leftEye
            {
              OFFSET 0.30408573140000006 0.5104519199999995 0.1276382305
              CHANNELS 3 Yrotation Xrotation Zrotation
              End Site
              {
                OFFSET 0.30408573140000006 0.5104519199999995 0.1276382305
              }
            }
            JOINT rightEye
            {
              OFFSET -0.30409491089999996 0.5104519199999995 0.1276379445
              CHANNELS 3 Yrotation Xrotation Zrotation
              End Site
              {
                OFFSET -0.30409491089999996 0.5104519199999995 0.1276379445
              }
            }
            JOINT jaw
            {
              OFFSET -3.155239131000001e-7 -0.11984121820000082 0.60178107
              CHANNELS 3 Yrotation Xrotation Zrotation
              End Site
              {
                OFFSET -3.155239131000001e-7 -0.11984121820000082 0.60178107
              }
            }
          }
        }
        JOINT rightShoulder
        {
          OFFSET -0.1807303465 1.5087829790000005 0
          CHANNELS 3 Yrotation Xrotation Zrotation
          JOINT rightUpperArm
          {
            OFFSET -0.5985063796536958 0 0
            CHANNELS 3 Yrotation Xrotation Zrotation
            JOINT rightLowerArm
            {
              OFFSET -2.2993322059002854 0 0
              CHANNELS 3 Yrotation Xrotation Zrotation
              JOINT rightHand
              {
                OFFSET -2.395045314457259 0 0
                CHANNELS 3 Yrotation Xrotation Zrotation
                JOINT rightIndexProximal
                {
                  OFFSET -0.5764487688300002 0.0441371204405987 0.17361932004999997
                  CHANNELS 3 Yrotation Xrotation Zrotation
                  JOINT rightIndexIntermediate
                  {
                    OFFSET -0.29573011380000047 -0.01934826376999843 -0.007698921482999974
                    CHANNELS 3 Yrotation Xrotation Zrotation
                    JOINT rightIndexDistal
                    {
                      OFFSET -0.19008373999999884 -0.012503266380000655 -0.0026365778999999897
                      CHANNELS 3 Yrotation Xrotation Zrotation
                      End Site
                      {
                        OFFSET -0.19008373999999884 -0.012503266380000655 -0.0026365778999999897
                      }
                    }
                  }
                }
                JOINT rightMiddleProximal
                {
                  OFFSET -0.5834852037300005 0.05211639405060153 0.02307162440000001
                  CHANNELS 3 Yrotation Xrotation Zrotation
                  JOINT rightMiddleIntermediate
                  {
                    OFFSET -0.33880114510000003 -0.019952774050000954 0.0002455003561999819
                    CHANNELS 3 Yrotation Xrotation Zrotation
                    JOINT rightMiddleDistal
                    {
                      OFFSET -0.20675694929999955 -0.012273788999999091 0.00030209124000002766
                      CHANNELS 3 Yrotation Xrotation Zrotation
                      End Site
                      {
                        OFFSET -0.20675694929999955 -0.012273788999999091 0.00030209124000002766
                      }
                    }
                  }
                }
                JOINT rightLittleProximal
                {
                  OFFSET -0.5346811737299992 -0.011214256288399227 -0.24363941305000003
                  CHANNELS 3 Yrotation Xrotation Zrotation
                  JOINT rightLittleIntermediate
                  {
                    OFFSET -0.21757715980000092 -0.011771559690000988 0.01201554387
                    CHANNELS 3 Yrotation Xrotation Zrotation
                    JOINT rightLittleDistal
                    {
                      OFFSET -0.1475201849000004 -0.00822055339600003 0.006082065407000015
                      CHANNELS 3 Yrotation Xrotation Zrotation
                      End Site
                      {
                        OFFSET -0.1475201849000004 -0.00822055339600003 0.006082065407000015
                      }
                    }
                  }
                }
                JOINT rightRingProximal
                {
                  OFFSET -0.5800810755299999 0.027657985680600072 -0.12066365025000003
                  CHANNELS 3 Yrotation Xrotation Zrotation
                  JOINT rightRingIntermediate
                  {
                    OFFSET -0.26166445029999974 -0.013623118409999302 0.011164098990000045
                    CHANNELS 3 Yrotation Xrotation Zrotation
                    JOINT rightRingDistal
                    {
                      OFFSET -0.17666387530000027 -0.009072900100000503 0.005668185599999959
                      CHANNELS 3 Yrotation Xrotation Zrotation
                      End Site
                      {
                        OFFSET -0.17666387530000027 -0.009072900100000503 0.005668185599999959
                      }
                    }
                  }
                }
                JOINT rightThumbProximal
                {
                  OFFSET -0.10997596379000074 -0.09577489355940072 0.16989765924999997
                  CHANNELS 3 Yrotation Xrotation Zrotation
                  JOINT rightThumbIntermediate
                  {
                    OFFSET -0.31036620999999986 -0.08229339117999834 0.15440884469999996
                    CHANNELS 3 Yrotation Xrotation Zrotation
                    JOINT rightThumbDistal
                    {
                      OFFSET -0.21631306399999906 -0.08825326400000111 0.018656797720000014
                      CHANNELS 3 Yrotation Xrotation Zrotation
                      End Site
                      {
                        OFFSET -0.21631306399999906 -0.08825326400000111 0.018656797720000014
                      }
                    }
                  }
                }
              }
            }
          }
        }
      }
    }
  }
}
MOTION
Frames: 8
Frame Time: 0.03333333333333333
0 11.682712981546562 0 0 0 0 0 0 -5.826343164929014 -0.3712483961610101 -3.6333298826370974 5.838118207697276 0 0 0 0 0 0 0 0 5.826343164929014 0.3712483961610101 -3.6333298826370974 -5.838118207697276 0 0 0 0 0 0 0 -4.610651315171937 0 0 3.0831277533083026 0 0 0 0 0 1.5275236235667615 0 0 0 0 0 0 0 0 0 0 0 0 0 0 0 0 0 0 0 0 0 0 0 0 0 0 0 0 0 0 0 0 0 0 0 0 0 0 0 0 0 0 0 0 0 0 0 0 0 0 0 0 0 0 0 0 1.5275236235667615 0 0 0 0 0 0 0 0 0 0 0 0 0 0 1.5275236235667615 0 0 0 0 0 0 0 0 0 0 0 0 0 0 0 0 0 0 0 0 0 0 0 0 0 0 0 0 0 0 0 0 0 0 0 0 0 0 0 0 0 0 0 0 0 0 0 0 0 0 0 0 0 0 0
0 0 0 0 15.99698924723037 0 10.734332864731755 -11.763786900365046 -5.46119529377145 15.784620410475542 78.04781747319666 23.34443655147932 50.82846606089453 63.82705897144223 30.095704720232895 0 0 0 -10.654718650034829 -11.91584758218536 5.636665914293923 -39.98748306556374 83.17820628556382 -46.503770596351785 -6.524262652923825 35.31695226121092 8.737206455600992 0 0 0 -0.07838919767378137 -12.946821324402771 -0.5303320831617024 -1.0835884361792438 43.73206638205912 -1.437559261164273 0 0 0 3.399186218453835 -1.227541013659215 2.905178502460692 2.18947136273391 0.9496515105735518 -77.91756885361616 13.740020459219942 4.4700079089300715 -22.660771912866746 -28.858479352446114 2.352733885052819 0.013980073567918553 0 0 0 0 0 0 0 0 0 0 0 0 0 0 0 0 0 0 0 0 0 0 0 0 0 0 0 0 0 0 0 0 0 0 0 0 0 0 0 0 0 0 0 0 0 0 8.524348324908225 0 0 17.998348714436776 0 0 0 0 0 0 0 0 0 0 7.416114696441793 -1.432275803702579 11.208672481922367 39.000460177220184 -12.917585067425577 57.47950847192667 37.17068261664114 1.9905307518278224 5.000646980463356 6.259205453102193 -19.62186856522051 5.255086162386353 0 0 0 0 0 0 0 0 0 0 0 0 0 0 0 0 0 0 0 0 0 0 0 0 0 0 0 0 0 0 0 0 0 0 0 0 0 0 0 0 0 0 0 0 0
0 0 -0.020378488375727793 0 16.773234667725188 0 10.85340631629523 -12.80716632776364 -5.644869151413898 16.36534417254871 78.32407969319412 23.937922280283093 50.82846606089453 63.82705897144223 30.095704720232895 0 0 0 -10.786938203446555 -12.956386157031956 5.809716632555397 -41.826546222704515 83.37741352268195 -48.35388005053915 -6.524262652923825 35.31695226121092 8.737206455600992 0 0 0 -0.07808536297682704 -12.005214979624103 -0.5316384666887801 -1.0212881111734127 39.95195169761965 -1.344454093218603 0 0 0 3.7257181952533425 0.6727833842320766 3.343720799916855 2.18947136273391 0.9496515105735518 -77.91756885361616 14.07411008724373 4.581096827190413 -23.070684784436697 -28.79167808653252 2.9039730208475425 0.08148790623388101 0 0 0 0 0 0 0 0 0 0 0 0 0 0 0 0 0 0 0 0 0 0 0 0 0 0 0 0 0 0 0 0 0 0 0 0 0 0 0 0 0 0 0 0 0 0 8.135838871795896 0 0 17.00189363163027 0 0 0 0 0 0 0 0 0 0 7.434019131376348 -0.7123977478474087 10.21682381813041 38.40484007255428 -12.864005089097763 59.578615223922796 37.17260438907942 2.012374216101733 5.000717957964423 5.133563483080387 -20.81978984939066 4.440594999671588 0 0 0 0 0 0 0 0 0 0 0 0 0 0 0 0 0 0 0 0 0 0 0 0 0 0 0 0 0 0 0 0 0 0 0 0 0 0 0 0 0 0 0 0 0
0 0 -0.04075670835918428 0 17.55005556758206 0 10.976607543266661 -13.8516045238601 -5.831829134931528 16.97443881777589 78.59908024658083 24.559771397750705 50.82846606089453 63.82705897144223 30.095704720232895 0 0 0 -10.923168023504013 -13.997959856405583 5.986241516874303 -43.777722338407386 83.56937348126877 -50.31610555475549 -6.524261613365968 35.316956446547366 8.737206455600992 0 0 0 -0.077804388907858 -11.062583747764243 -0.5329365693301414 -0.9688213358415969 36.098374640815805 -1.259591472367259 0 0 0 4.068814575973288 2.5798058957652312 3.7957396095517573 2.18947136273391 0.9496515105735518 -77.91756885361616 14.407575746941573 4.694606755315738 -23.48016309723223 -28.72416374634333 3.455342550608655 0.1497010605966815 0 0 0 0 0 0 0 0 0 0 0 0 0 0 0 0 0 0 0 0 0 0 0 0 0 0 0 0 0 0 0 0 0 0 0 0 0 0 0 0 0 0 0 0 0 0 7.747256758485902 0 0 16.00421727987175 0 0 0 0 0 0 0 0 0 0 7.439456251314162 0.009013679455658202 9.223443357159375 37.80864782763659 -12.788726040538052 61.687544934606706 37.17453513020557 2.0342177594088655 5.000789405462817 4.011499701750012 -22.038546416229885 3.6409538954689182 0 0 0 0 0 0 0 0 0 0 0 0 0 0 0 0 0 0 0 0 0 0 0 0 0 0 0 0 0 0 0 0 0 0 0 0 0 0 0 0 0 0 0 0 0
0 0 -0.06113519673491208 0 18.327383495686263 0 11.10407442651488 -14.896913457021345 -6.022220733010232 17.613816713038904 78.87273346893606 25.211902090767556 50.82846606089453 63.82705897144223 30.095704720232895 0 0 0 -11.06353100697638 -15.040369284953869 6.16638269429231 -45.84698893647817 83.75342326216737 -52.39641724888197 -6.524263692481675 35.31695226121092 8.737205421409104 0 0 0 -0.0775459967904028 -10.119056894634806 -0.5342268272715043 -0.9247622938323579 32.178122823714716 -1.181419394918565 0 0 0 4.429270915338003 4.492212428126113 4.2621569164204445 2.1894722160014677 0.9496512971008187 -77.91756885361616 14.740380909187605 4.81052774010554 -23.889171787133094 -28.655927096830677 4.006815905855887 0.21863216506313346 0 0 0 0 0 0 0 0 0 0 0 0 0 0 0 0 0 0 0 0 0 0 0 0 0 0 0 0 0 0 0 0 0 0 0 0 0 0 0 0 0 0 0 0 0 0 7.358613611568155 0 0 15.005481878509569 0 0 0 0 0 0 0 0 0 0 7.432362758734369 0.731581163553525 8.228439304056922 37.213170446972974 -12.691630713959716 63.80462886096229 37.17645981974124 2.05606117134642 5.0008605995920865 2.8931076780408636 -23.277047432322572 2.8568776878853637 0 0 0 0 0 0 0 0 0 0 0 0 0 0 0 0 0 0 0 0 0 0 0 0 0 0 0 0 0 0 0 0 0 0 0 0 0 0 0 0 0 0 0 0 0
0 0 -0.08151368511063987 0 19.105132502534122 0 11.23593197926378 -15.942889436341593 -6.2161948718191224 18.28564409056848 79.14494530048637 25.896472971164684 50.82846606089453 63.82705897144223 30.095704720232895 0 0 0 -11.208169279018595 -16.08342127649541 6.350287300561724 -48.03896952039198 83.9287838906649 -54.59944088584513 -6.524261613365968 35.31695226121092 8.737204904313158 0 0 0 -0.07730883404576894 -9.174758911193724 -0.5355109134762404 -0.8879991002820042 28.198857822939303 -1.1086839850797179 0 0 0 4.807955299216592 6.408645981717414 4.743958805679399 2.18947136273391 0.9496515105735518 -77.91756885361616 15.072503333386305 4.928845191570339 -24.297688577028897 -28.586950819882038 4.558364129032706 0.2882916144601399 0 0 0 0 0 0 0 0 0 0 0 0 0 0 0 0 0 0 0 0 0 0 0 0 0 0 0 0 0 0 0 0 0 0 0 0 0 0 0 0 0 0 0 0 0 0 6.969915820759499 0 0 14.00583336284485 0 0 0 0 0 0 0 0 0 0 7.412682821076333 1.4549190912981895 7.231724417507195 36.619676528900825 -12.5726415242091 65.92810877150983 37.1783757355395 2.0779046686677476 5.000933540430245 1.7784294625051664 -24.534160398231105 2.0890685355561485 0 0 0 0 0 0 0 0 0 0 0 0 0 0 0 0 0 0 0 0 0 0 0 0 0 0 0 0 0 0 0 0 0 0 0 0 0 0 0 0 0 0 0 0 0
0 0 -0.10189217348636767 0 19.88324758595217 0 11.372320449227697 -16.989323526500872 -6.413905569727161 18.992198884825594 79.41557514151413 26.615770836387654 50.82846606089453 63.82705897144223 30.095704720232895 0 0 0 -11.357226843455381 -17.126912182948914 6.538109108581385 -50.35829184502123 84.09475244609483 -56.92980694048897 -6.524261137811649 35.3169480758747 8.737205302741256 0 0 0 -0.07709374763381655 -8.229817741270702 -0.5367884000014427 -0.8576658992697866 24.16905186331178 -1.0403658871075518 0 0 0 5.2058073511904315 8.3277087181578 5.242197837592452 2.18947136273391 0.9496511903644522 -77.91756062389878 15.403913363849378 5.049547594861941 -24.705691348582967 -28.517239859652427 5.109960548811648 0.35869185242765833 0 0 0 0 0 0 0 0 0 0 0 0 0 0 0 0 0 0 0 0 0 0 0 0 0 0 0 0 0 0 0 0 0 0 0 0 0 0 0 0 0 0 0 0 0 0 6.58117359020599 0 0 13.00541804971038 0 0 0 0 0 0 0 0 0 0 7.380362431116513 2.1786439039387133 6.233202862196946 36.029445958690005 -12.431774490633972 68.05621020453454 37.18030541055748 2.0997493224853923 5.001007504635759 0.6674481915231905 -25.80868424095585 1.3382285856282172 0 0 0 0 0 0 0 0 0 0 0 0 0 0 0 0 0 0 0 0 0 0 0 0 0 0 0 0 0 0 0 0 0 0 0 0 0 0 0 0 0 0 0 0 0
0 0 -0.12227039346982416 0 20.661648705162587 0 11.513399678875517 -18.036032901033977 -6.615521320588752 19.73600132678337 79.68454440502063 27.372309223042166 50.82846606089453 63.82705897144223 30.095704720232895 0 0 0 -11.510857958647415 -18.170648357759706 6.730013458542321 -52.80764108048938 84.25045187643077 -59.39020142155616 -6.524262652923825 35.31695226121092 8.737206455600992 0 0 0 -0.07690043494234677 -7.284363416445629 -0.5380607121677673 -0.8330817739563755 20.097883789833816 -0.9756067843584164 0 0 0 5.623839631533677 10.24795572591275 5.757992339723324 2.18947136273391 0.9496515105735518 -77.91756885361616 15.734572239735487 5.172618799770614 -25.113130602400737 -28.44675919733391 5.661573680627887 0.4298431684701929 0 0 0 0 0 0 0 0 0 0 0 0 0 0 0 0 0 0 0 0 0 0 0 0 0 0 0 0 0 0 0 0 0 0 0 0 0 0 0 0 0 0 0 0 0 0 6.192394486843822 0 0 12.004392742662915 0 0 0 0 0 0 0 0 0 0 7.33535186050786 2.902366291133046 5.2327848588937504 35.443769895914464 -12.269170201477595 70.18717720285446 37.182229036384506 2.121592786534936 5.0010819390843135 -0.4399041187355519 -27.099402286709516 0.6050542182990001 0 0 0 0 0 0 0 0 0 0 0 0 0 0 0 0 0 0 0 0 0 0 0 0 0 0 0 0 0 0 0 0 0 0 0 0 0 0 0 0 0 0 0 0 0
